<svg width="399px" height="108px" xmlns="http://www.w3.org/2000/svg" xmlns:xlink="http://www.w3.org/1999/xlink"><defs><path id="a" d="M0 .1h399V108H0z"/></defs><g fill="none" fill-rule="evenodd"><path d="M165.2 74.5c-2.2 1.6-6 2.4-11.1 2.4H141V58.2h13.3c4.7 0 8.3.7 10.6 2.2 2.4 1.4 3.5 3.7 3.5 7 0 3-1 5.5-3.2 7zM141 30.7h13.9c4.5 0 7.7.7 9.7 2 2 1.5 3 3.6 3 6.6 0 3.1-1 5.4-3.2 6.9a17 17 0 0 1-9.4 2.1h-14V30.7zm29.2 22.6c3.1-1.3 5.5-3.1 7-5.6 1.7-2.5 2.5-5.8 2.5-9.7 0-5.6-2-9.8-6-12.8s-10.4-4.4-19.2-4.4H129v66.6h26.7c8.5 0 15-1.7 19-5 4.2-3.3 6.3-8 6.3-14 0-4.1-1-7.4-2.8-9.8a16.3 16.3 0 0 0-8-5.3zM207 36.4a16.5 16.5 0 0 0-6 9.9l-1.5-12.6h-10v53.7h12.1V62.5c0-4.2.4-7.5 1.3-10a8.7 8.7 0 0 1 4.6-5.2 15 15 0 0 1 4.1-1.3c1.6-.2 3.5-.4 5.6-.4h5.3V33.2H219c-5 0-9 1-12 3.2M238.7 55.4c.7-4.2 2.3-7.5 5-9.8 2.6-2.4 6-3.5 10.2-3.5 4.3 0 7.6 1.2 9.9 3.6 2.3 2.4 3.6 5.6 4 9.7h-29.1zm35.2-14.7a22.3 22.3 0 0 0-8.2-6.1 29 29 0 0 0-11.9-2.3 29 29 0 0 0-14.5 3.5 24 24 0 0 0-9.5 9.7c-1.1 2.1-2 4.4-2.5 6.9a36 36 0 0 0-.8 8v1.3a28 28 0 0 0 6.7 19.7c4.5 5 11.2 7.4 20.3 7.4a29 29 0 0 0 17-4.6c4.3-3 7.3-7.3 8.8-12.7h-13.1a11 11 0 0 1-4.4 5.3c-2 1.3-4.6 1.9-7.9 1.9-4.4 0-8-1.2-10.6-3.6a15.3 15.3 0 0 1-4.7-10h41.5v-5.8c0-3.4-.5-6.7-1.5-10a25 25 0 0 0-4.7-8.6zM325.5 63a16.9 16.9 0 0 1-17.3 16.3c-2.8 0-4.9-.5-6.3-1.6-1.4-1.2-2.1-2.9-2.1-5A6.3 6.3 0 0 1 303 67c1.2-.8 2.7-1.4 4.3-2 1.7-.4 4.1-.9 7.3-1.4 2.5-.3 4.6-.8 6.4-1.4a15 15 0 0 0 4.5-2V63zm1.9-28.3c-1.8-.8-3.8-1.4-6.1-1.8-2.3-.4-5-.6-7.9-.6a27 27 0 0 0-18 5.6 20.4 20.4 0 0 0-7.2 14.7h12.6c.2-3.4 1.4-6 3.5-8 2-1.8 5.4-2.7 9.8-2.7 4.2 0 7 .6 8.8 2 1.6 1.2 2.5 3 2.5 5.3 0 2.1-1 3.7-3.1 4.6a42 42 0 0 1-10.4 2.3l-8.3 1.4a39.6 39.6 0 0 0-7.9 2.4l-2.3 1.3a14.9 14.9 0 0 0-7 13.2c0 4.3 1.5 7.8 4.5 10.4 3 2.7 7.3 4 13.1 4 5.5 0 10.1-1.2 13.8-3.5 3.6-2.3 6.3-5.2 8.1-8.7l1.4 10.8h9.9V51c0-3.8-.8-7.2-2.3-10-1.6-2.8-4-5-7.5-6.4z" fill="#FFFFFE"/><mask id="b" fill="#fff"><use xlink:href="#a"/></mask><path d="M387.4 60.7c0 5.2-1.3 9.4-4 12.6a13.4 13.4 0 0 1-10.7 4.6c-4 0-7.4-1.4-10-4.3-2.7-3-4-7.2-4-13v-1a19 19 0 0 1 3.8-12.5c2.5-3 6-4.5 10.6-4.5 4.4 0 8 1.6 10.5 4.7a19 19 0 0 1 3.8 12.4v1zm-.3-45.3V43a17.8 17.8 0 0 0-6.7-7.7c-3-1.8-6.7-2.8-11.1-2.8-4.6 0-8.6 1-12 3.1-3.5 2-6.3 5.1-8.2 9-1 2-1.7 4.3-2.2 6.8-.5 2.5-.8 5.2-.8 8.1v1.3c0 9 2.1 16 6.3 20.7a21 21 0 0 0 16.5 7c4.8 0 8.8-1 11.8-3.4 3.1-2.3 5.4-5.2 6.8-8.8l1.3 11.2H399v-72h-11.9zM33.6 56.3c-1.9-.5-14.5-3.9-14.5-16.1l43.4 11.6C64 52.2 77 55.8 77 68L33.6 56.3zM48 .1C33.5.1 23.2 4.5 23.2 9c0 1.7 1.1 2.6 3 3 4 1.2 34.3 9.2 36.3 9.8 2.4.7 14.5 3.9 14.5 16.1 0 0-58.5-15.9-62.6-16.8-2.8-.6-5 0-6.4 1.4-3.6 3.6-8 20-8 31.8C0 85.4 19 108 48 108c14.5 0 24.9-4.3 24.9-8.7 0-1.8-1.2-2.6-3-3.1l-36.3-9.8c-2-.5-14.5-3.8-14.5-16.1L81.6 87c2.8.6 5 0 6.5-1.4 3.6-3.6 8-20 8-31.8C96 22.7 77 .1 48 .1z" fill="#FFFFFE" mask="url(#b)"/></g></svg>
